Coordinates
version=1
nRows=116
nColumns=11
inDegrees=no

Units are S.I. units (second, meters, Newtons, ...)
If the header above contains a line with 'inDegrees', this indicates whether rotational values are in degrees (yes) or radians (no).

endheader
time	pelvis_tilt	pelvis_tx	pelvis_ty	hip_flexion_r	knee_angle_r	ankle_angle_r	hip_flexion_l	knee_angle_l	ankle_angle_l	lumbar_extension
105.52	-0.0723797	0.117013	0.973042	-0.133073	-0.146318	0.429564	0.70673	-0.430366	0.246126	0
105.53	-0.0739217	0.117157	0.970636	-0.141106	-0.157017	0.43144	0.712091	-0.429001	0.263658	0
105.54	-0.0902242	0.115108	0.966939	-0.124772	-0.176835	0.427583	0.736441	-0.437915	0.279654	0
105.55	-0.0903856	0.116526	0.964666	-0.131711	-0.192821	0.423557	0.735467	-0.448331	0.293325	0
105.56	-0.089856	0.118058	0.962792	-0.138518	-0.209608	0.417577	0.733702	-0.468137	0.300857	0
105.57	-0.08849	0.120045	0.961293	-0.144888	-0.229102	0.40877	0.729559	-0.492332	0.303033	0
105.58	-0.0866696	0.12218	0.960025	-0.149503	-0.253284	0.397455	0.72301	-0.51403	0.301111	0
105.59	-0.0711674	0.126792	0.960125	-0.171307	-0.27872	0.385991	0.694037	-0.52473	0.296835	0
105.6	-0.062901	0.130319	0.960155	-0.182186	-0.30663	0.367143	0.674253	-0.534147	0.279771	0
105.61	-0.0662398	0.131856	0.959758	-0.174067	-0.338767	0.340123	0.66995	-0.542519	0.265673	0
105.62	-0.06482	0.133934	0.960004	-0.167572	-0.377866	0.310697	0.660132	-0.553536	0.26985	0
105.63	-0.0619311	0.13655	0.960806	-0.159425	-0.421831	0.271295	0.651374	-0.571307	0.279033	0
105.64	-0.057944	0.139504	0.961941	-0.148459	-0.470781	0.224368	0.642724	-0.592601	0.287172	0
105.65	-0.0535815	0.142522	0.963554	-0.133798	-0.522703	0.166551	0.628895	-0.606568	0.297355	0
105.66	-0.0485705	0.145181	0.965529	-0.114816	-0.577573	0.10379	0.607508	-0.608781	0.310437	0
105.67	-0.0181574	0.151549	0.969554	-0.1222	-0.639335	0.0382785	0.551803	-0.609257	0.321799	0
105.68	-0.014684	0.15371	0.972159	-0.0931331	-0.699769	-0.0435228	0.526104	-0.60143	0.333785	0
105.69	-0.0371243	0.151519	0.973086	-0.0292418	-0.758686	-0.120538	0.532832	-0.590266	0.345158	0
105.7	-0.0332863	0.152774	0.975866	0.00514647	-0.819781	-0.19986	0.509039	-0.584536	0.353472	0
105.71	-0.0295575	0.153977	0.978975	0.038608	-0.873809	-0.283492	0.481222	-0.57245	0.36277	0
105.72	-0.0295354	0.154386	0.981645	0.0779484	-0.924857	-0.357331	0.457245	-0.556575	0.370018	0
105.73	-0.0408457	0.151912	0.983405	0.136614	-0.983181	-0.398516	0.446378	-0.536438	0.37497	0
105.74	-0.000745671	0.159433	0.988962	0.118871	-1.0234	-0.40506	0.371448	-0.524049	0.38096	0
105.75	-0.0372036	0.151847	0.989802	0.209017	-1.07093	-0.387349	0.389366	-0.49433	0.377411	0
105.76	-0.0350483	0.151584	0.993006	0.243068	-1.10419	-0.352707	0.358494	-0.468474	0.374925	0
105.77	-0.0320312	0.151712	0.996304	0.27496	-1.13137	-0.313057	0.327248	-0.443739	0.372789	0
105.78	-0.0310529	0.151017	0.999465	0.307469	-1.15339	-0.268733	0.29698	-0.416934	0.370081	0
105.79	-0.0297937	0.150495	1.00234	0.338655	-1.16985	-0.226551	0.265829	-0.388056	0.365249	0
105.8	-0.0279528	0.149803	1.00492	0.368359	-1.18044	-0.187872	0.23508	-0.360656	0.35872	0
105.81	-0.025838	0.149085	1.00726	0.395761	-1.18467	-0.153426	0.204549	-0.334124	0.356188	0
105.82	-0.00988208	0.152081	1.01092	0.398481	-1.17546	-0.129885	0.155676	-0.307156	0.354323	0
105.83	-0.00938371	0.150857	1.0134	0.423739	-1.16925	-0.10767	0.125141	-0.277018	0.343031	0
105.84	-0.0214197	0.147579	1.01356	0.472063	-1.16802	-0.084474	0.115253	-0.250498	0.33187	0
105.85	-0.0080046	0.148968	1.01607	0.474705	-1.14675	-0.0606398	0.0744956	-0.232209	0.330822	0
105.86	-0.0103569	0.146879	1.01677	0.502952	-1.12986	-0.0394293	0.0560734	-0.215067	0.326195	0
105.87	-0.0220453	0.143634	1.01643	0.542753	-1.11122	-0.0129172	0.0465317	-0.191357	0.31158	0
105.88	-0.0226233	0.142645	1.01679	0.56302	-1.08473	0.0110421	0.0237885	-0.172706	0.305324	0
105.89	-0.0226398	0.141491	1.01699	0.580885	-1.05402	0.0311526	0.00118663	-0.155185	0.299981	0
105.9	-0.00757761	0.14322	1.01831	0.573162	-1.01368	0.051292	-0.040135	-0.141043	0.299973	0
105.91	-0.00938564	0.143081	1.01739	0.591631	-0.974998	0.0740242	-0.0568989	-0.126499	0.294106	0
105.92	-0.00925026	0.140727	1.01649	0.603732	-0.9353	0.0948566	-0.0794547	-0.111909	0.28869	0
105.93	-0.0112095	0.139181	1.01494	0.618374	-0.892521	0.112769	-0.0981284	-0.0958446	0.286747	0
105.94	-0.0129799	0.137917	1.01322	0.631171	-0.847738	0.123303	-0.116331	-0.0820711	0.286326	0
105.95	-0.0141955	0.137057	1.01123	0.640993	-0.799929	0.129901	-0.135588	-0.0691939	0.285557	0
105.96	-0.0157047	0.136018	1.00878	0.649401	-0.748983	0.138134	-0.154682	-0.0557605	0.284788	0
105.97	-0.0328738	0.132147	1.00454	0.678323	-0.698803	0.148158	-0.151804	-0.0449688	0.282262	0
105.98	-0.020141	0.133831	1.00276	0.663251	-0.640652	0.154134	-0.188484	-0.0337762	0.289379	0
105.99	-0.0214414	0.133193	0.999394	0.665292	-0.582957	0.157954	-0.207271	-0.0229639	0.292346	0
106	-0.0238181	0.132508	0.995782	0.667754	-0.525879	0.163462	-0.224334	-0.0130616	0.294755	0
106.01	-0.0416403	0.129238	0.990531	0.690884	-0.47392	0.167519	-0.220013	-0.00411898	0.294689	0
106.02	-0.0439979	0.128532	0.986469	0.691403	-0.422269	0.171409	-0.233598	0.000979935	0.303132	0
106.03	-0.0464211	0.128451	0.982435	0.691856	-0.375347	0.174976	-0.245804	0.00378957	0.31097	0
106.04	-0.0345205	0.130293	0.979729	0.672372	-0.334928	0.1844	-0.278894	0.00830039	0.316233	0
106.05	-0.0381886	0.129599	0.975763	0.675027	-0.308724	0.192509	-0.29037	0.00859846	0.318322	0
106.06	-0.0373378	0.130243	0.972308	0.673755	-0.295177	0.201164	-0.305794	0.00699188	0.321412	0
106.07	-0.0389427	0.130445	0.968633	0.676443	-0.294928	0.212216	-0.313496	-0.00370224	0.326156	0
106.08	-0.0553467	0.128602	0.964114	0.701299	-0.311903	0.215626	-0.299365	-0.0192193	0.328679	0
106.09	-0.057413	0.129226	0.961376	0.708029	-0.339258	0.211637	-0.306948	-0.0284895	0.327191	0
106.1	-0.0595027	0.130047	0.958962	0.714694	-0.37214	0.199793	-0.310946	-0.0433688	0.324283	0
106.11	-0.0446021	0.133573	0.958375	0.695218	-0.396313	0.19094	-0.336655	-0.0581137	0.320269	0
106.12	-0.0446733	0.135006	0.957158	0.696246	-0.42076	0.17906	-0.341735	-0.0750941	0.306601	0
106.13	-0.0456718	0.13635	0.956502	0.698198	-0.44339	0.158802	-0.341955	-0.0977644	0.29378	0
106.14	-0.0398438	0.138698	0.957029	0.68985	-0.46405	0.141492	-0.345736	-0.129061	0.275565	0
106.15	-0.0481618	0.139815	0.956974	0.699344	-0.486214	0.138393	-0.332325	-0.157084	0.241757	0
106.16	-0.0475736	0.141589	0.958294	0.696519	-0.509863	0.144501	-0.328356	-0.188802	0.212679	0
106.17	-0.0441636	0.144527	0.960091	0.686807	-0.526205	0.15252	-0.32283	-0.224978	0.170741	0
106.18	-0.0431749	0.146849	0.962346	0.675064	-0.53602	0.160544	-0.310455	-0.264846	0.114977	0
106.19	-0.0534047	0.147208	0.964354	0.674798	-0.543073	0.171318	-0.276655	-0.314618	0.0542544	0
106.2	-0.0523264	0.149817	0.967542	0.65536	-0.541193	0.184895	-0.250436	-0.369559	-0.00389395	0
106.21	-0.048915	0.151386	0.971261	0.628873	-0.534893	0.20237	-0.22606	-0.426377	-0.0624442	0
106.22	-0.0329611	0.15517	0.975897	0.586129	-0.526201	0.218091	-0.213896	-0.485469	-0.132003	0
106.23	-0.0448446	0.154165	0.978123	0.583402	-0.521926	0.231581	-0.154426	-0.56212	-0.201644	0
106.24	-0.0442882	0.154752	0.981048	0.563063	-0.514976	0.244499	-0.111115	-0.635758	-0.265619	0
106.25	-0.0441066	0.154942	0.983676	0.543469	-0.507983	0.25473	-0.0680043	-0.703335	-0.32779	0
106.26	-0.0443416	0.155078	0.986115	0.524185	-0.499111	0.265031	-0.0253712	-0.764457	-0.381381	0
106.27	-0.0322374	0.157518	0.989818	0.48508	-0.48526	0.274789	-0.00349545	-0.817692	-0.405609	0
106.28	-0.0336976	0.157398	0.99253	0.463576	-0.470555	0.281135	0.0409299	-0.879085	-0.400254	0
106.29	-0.0339308	0.156297	0.995418	0.43962	-0.455019	0.290111	0.082707	-0.936721	-0.373656	0
106.3	-0.046976	0.152965	0.99699	0.432955	-0.436854	0.296654	0.146161	-0.995629	-0.339905	0
106.31	-0.0472183	0.152175	0.99984	0.408417	-0.417182	0.297932	0.18566	-1.03719	-0.302234	0
106.32	-0.0474426	0.151392	1.00262	0.382738	-0.395906	0.298166	0.223929	-1.07315	-0.259995	0
106.33	-0.0483991	0.150431	1.00512	0.357039	-0.373865	0.297651	0.262492	-1.10486	-0.219683	0
106.34	-0.0484649	0.149656	1.00728	0.329176	-0.349749	0.29974	0.299225	-1.13154	-0.183497	0
106.35	-0.0476718	0.149197	1.00941	0.30043	-0.324397	0.302192	0.332772	-1.1501	-0.15008	0
106.36	-0.0495392	0.14718	1.01119	0.277253	-0.301625	0.302114	0.369981	-1.16533	-0.124294	0
106.37	-0.0504063	0.145537	1.01284	0.254729	-0.281325	0.299947	0.404991	-1.17594	-0.10475	0
106.38	-0.0494997	0.144718	1.01447	0.228663	-0.259931	0.300009	0.436219	-1.18143	-0.0871119	0
106.39	-0.0488654	0.143836	1.01548	0.201508	-0.236812	0.300178	0.465485	-1.18157	-0.0677084	0
106.4	-0.0496796	0.142118	1.01595	0.176205	-0.213377	0.298472	0.495667	-1.17783	-0.0477935	0
106.41	-0.0508671	0.140523	1.01627	0.154404	-0.194423	0.296979	0.525361	-1.17024	-0.0256036	0
106.42	-0.0377442	0.142646	1.01791	0.112691	-0.17561	0.302625	0.528408	-1.14968	-0.00217016	0
106.43	-0.0122285	0.146535	1.01957	0.0592473	-0.165152	0.308985	0.51658	-1.1296	0.0162412	0
106.44	-0.0355742	0.140561	1.01713	0.0646216	-0.140581	0.308444	0.570802	-1.10603	0.0391996	0
106.45	-0.0354907	0.13914	1.01631	0.0485947	-0.134442	0.314317	0.592396	-1.08042	0.0570408	0
106.46	-0.0399342	0.137526	1.01484	0.0347975	-0.120957	0.321803	0.619821	-1.05397	0.0734911	0
106.47	-0.0412421	0.136466	1.01348	0.0169408	-0.10931	0.328115	0.639353	-1.02077	0.0864208	0
106.48	-0.0566122	0.132539	1.01023	0.01816	-0.0989256	0.32919	0.676751	-0.986077	0.100771	0
106.49	-0.0587654	0.131237	1.0079	0.00264139	-0.0901077	0.337564	0.691568	-0.943562	0.111605	0
106.5	-0.0612966	0.129807	1.0053	-0.0110862	-0.0836421	0.345274	0.70692	-0.900757	0.11932	0
106.51	-0.0628475	0.128761	1.00274	-0.0267498	-0.0767333	0.348836	0.72031	-0.857109	0.125161	0
106.52	-0.0630927	0.127887	1.00021	-0.0442541	-0.0695246	0.356793	0.727993	-0.807592	0.131588	0
106.53	-0.0636595	0.127369	0.997332	-0.0589545	-0.0664904	0.366313	0.731298	-0.752129	0.139236	0
106.54	-0.0642352	0.126967	0.994178	-0.0728282	-0.0655636	0.375223	0.729834	-0.692711	0.149899	0
106.55	-0.0647951	0.126616	0.99089	-0.0865917	-0.0649049	0.382732	0.726827	-0.633867	0.157428	0
106.56	-0.0657078	0.126419	0.987741	-0.100104	-0.06317	0.389774	0.722318	-0.576194	0.164959	0
106.57	-0.068949	0.126093	0.984391	-0.10789	-0.0660025	0.40044	0.721762	-0.524881	0.172304	0
106.58	-0.0715384	0.125643	0.980978	-0.114241	-0.074819	0.412895	0.71841	-0.476523	0.180813	0
106.59	-0.0729833	0.125725	0.977678	-0.121596	-0.0854649	0.422856	0.715302	-0.439508	0.191448	0
106.6	-0.0592752	0.128537	0.975802	-0.150132	-0.0939399	0.435634	0.693556	-0.413585	0.20585	0
106.61	-0.0587842	0.129526	0.972891	-0.160171	-0.105096	0.44294	0.689783	-0.399511	0.218761	0
106.62	-0.0616051	0.129468	0.970121	-0.163303	-0.121863	0.446787	0.688638	-0.392055	0.227404	0
106.63	-0.060782	0.130343	0.967889	-0.16797	-0.143283	0.449704	0.684999	-0.396033	0.232102	0
106.64	-0.0754904	0.129188	0.964552	-0.14962	-0.168405	0.443575	0.703147	-0.411836	0.228089	0
106.65	-0.0744853	0.13044	0.962898	-0.152381	-0.193111	0.438343	0.701062	-0.434604	0.220859	0
106.66	-0.0609185	0.134114	0.962787	-0.171823	-0.217803	0.434824	0.676411	-0.449231	0.216161	0
106.67	-0.0606637	0.135237	0.961955	-0.170288	-0.24991	0.423579	0.668999	-0.462939	0.206755	0
